# AST/ASF file generated using VICON BodyLanguage
# -----------------------------------------------
:version 1.10
:name VICON
:units
  mass 1.0
  length 0.45
  angle deg
:documentation
   .ast/.asf automatically generated from VICON data using
   VICON BodyBuilder and BodyLanguage model FoxedUp or BRILLIANT.MOD
:root
   order TX TY TZ RX RY RZ
   axis XYZ
   position 0 0 0  
   orientation 0 0 0 
:bonedata
  begin
     id 1 
     name lhipjoint
     direction 0.547975 -0.797114 0.253638 
     length 2.36201 
     axis 0 0 0  XYZ
  end
  begin
     id 2 
     name lfemur
     direction 0.34202 -0.939693 0  
     length 7.69075  
     axis 0 0 20  XYZ
    dof rx ry rz
    limits (-160.0 20.0)
           (-70.0 70.0)
           (-60.0 70.0)
  end
  begin
     id 3 
     name ltibia
     direction 0.34202 -0.939693 0   
     length 7.91399   
     axis 0 0 20   XYZ
    dof rx
    limits (-10.0 170.0)
  end
  begin
     id 4 
     name lfoot
     direction 0.0705293 -0.193778 0.978507   
     length 2.13618   
     axis -90 7.62852e-016 20   XYZ
    dof rx rz
    limits (-45.0 90.0)
           (-70.0 20.0)
  end
  begin
     id 5 
     name ltoes
     direction 1.53592e-011 -4.21925e-011 1   
     length 1.07518   
     axis -90 7.62852e-016 20   XYZ
    dof rx
    limits (-90.0 20.0)
  end
  begin
     id 6 
     name rhipjoint
     direction -0.57 -0.782963 0.249136   
     length 2.4047  
     axis 0 0 0  XYZ 
  end
  begin
     id 7 
     name rfemur
     direction -0.34202 -0.939693 0   
     length 7.51486   
     axis 0 0 -20   XYZ
    dof rx ry rz
    limits (-160.0 20.0)
           (-70.0 70.0)
           (-70.0 60.0)
  end
  begin
     id 8 
     name rtibia
     direction -0.34202 -0.939693 0   
     length 8.08317   
     axis 0 0 -20   XYZ
    dof rx
    limits (-10.0 170.0)
 end
 begin
     id 9 
     name rfoot
     direction -0.104954 -0.281256 0.953876   
     length 2.30343  
     axis -90 -7.62852e-016 -20   XYZ
    dof rx rz
    limits (-45.0 90.0)
           (-20.0 70.0)
  end
  begin
     id 10 
     name rtoes
     direction -1.53556e-011 -4.21922e-011 1   
     length 1.14803   
     axis -90 -7.62852e-016 -20   XYZ
    dof rx
    limits (-90.0 20.0)
  end
  begin
     id 11 
     name lowerback
     direction -0.0152855 0.99353 -0.11254   
     length 2.05311   
     axis 0 0 0   XYZ
    dof rx ry rz
    limits (-20.0 45.0)
           (-30.0 30.0)
           (-30.0 30.0)
  end
  begin
     id 12 
     name upperback
     direction -0.00157509 0.999443 -0.033332   
     length 2.06353   
     axis 0 0 0   XYZ
    dof rx ry rz
    limits (-20.0 45.0)
           (-30.0 30.0)
           (-30.0 30.0)
  end
  begin
     id 13 
     name thorax
     direction 0.00577788 0.999804 0.0189484   
     length 2.08472   
     axis 0 0 0   XYZ
    dof rx ry rz
    limits (-20.0 45.0)
           (-30.0 30.0)
           (-30.0 30.0)
  end
  begin
     id 14 
     name lowerneck
     direction -1.09301e-005 0.994719 0.10264   
     length 1.76249   
     axis 0 0 0   XYZ
    dof rx ry rz
    limits (-20.0 45.0)
           (-30.0 30.0)
           (-30.0 30.0)
  end
  begin
     id 15 
     name upperneck
     direction 0.0495018 0.988526 -0.142706   
     length 1.77897   
     axis 0 0 0   XYZ
    dof rx ry rz
    limits (-20.0 45.0)
           (-30.0 30.0)
           (-30.0 30.0)
  end
  begin
     id 16
     name head
     direction 0.0142736 0.998114 -0.0597101  
     length 1.78934  
     axis 0 0 0   XYZ
    dof rx ry rz
    limits (-20.0 45.0)
           (-30.0 30.0)
           (-30.0 30.0)
  end
  begin
     id 17 
     name lclavicle
     direction 0.918111 0.396107 -0.0130883  
     length 3.37276  
     axis 0 0 0   XYZ
    dof ry rz
    limits (-20.0 10.0)
           (0.0 20.0)
  end
  begin
     id 18 
     name lhumerus
     direction 1 -4.48975e-011 -3.26108e-027   
     length 5.34298   
     axis 180 -30 -90   XYZ
    dof rx ry rz
    limits (-60.0 90.0)
           (-90.0 90.0)
           (-90.0 90.0)
  end
  begin
     id 19
     name lradius
     direction 1 -4.48964e-011 -8.84413e-028   
     length 3.67262   
     axis 180 -30 -90   XYZ
    dof rx
    limits (-10.0 170.0)
  end
  begin
     id 20
     name lwrist
     direction 1 -4.48991e-011 -1.24264e-027   
     length 1.83631   
     axis -2.17013e-015 90 90   XYZ
    dof ry
    limits (-180.0 0.0)
 end
  begin
     id 21 
     name lhand
     direction 1 -4.48855e-011 -2.48528e-027   
     length 0.599298   
     axis 1.58582e-015 90 90   XYZ
    dof rx rz
    limits (-90.0 90.0)
           (-45.0 45.0)
  end
  begin
     id 22 
     name lfingers
     direction 1 -4.48811e-011 -4.97056e-027   
     length 0.48317   
     axis 3.17164e-015 90 90   XYZ
    dof rx
    limits (0.0 90.0)
  end
  begin
     id 23
     name lthumb
     direction 0.707107 -6.34882e-011 0.707107   
     length 0.693738   
     axis -90 45 2.85299e-015   XYZ
    dof rx rz
    limits (-45.0 45.0)
           (-45.0 45.0)
  end
  begin
     id 24 
     name rclavicle
     direction -0.920511 0.384752 -0.0680135   
     length 3.43787  
     axis 0 0 0   XYZ 
    dof ry rz
    limits (-10.0 20.0)
           (-20.0 0.0)
  end
  begin
     id 25 
     name rhumerus
     direction -0.999976 -0.00330524 0.00603274  
     length 5.5498   
     axis 180 30 90   XYZ
    dof rx ry rz
    limits (-90.0 60.0)
           (-90.0 90.0)
           (-90.0 90.0)
  end
  begin
     id 26 
     name rradius
     direction -1 -4.48967e-011 8.62438e-027   
     length 3.69401   
     axis 180 30 90   XYZ
    dof rx
    limits (-10.0 170.0)
  end
  begin
     id 27 
     name rwrist
     direction -1 -4.4897e-011 9.54866e-027   
     length 1.84701   
     axis -7.69462e-015 -90 -90   XYZ
    dof ry
    limits (-180.0 0.0)
  end
  begin
     id 28
     name rhand
     direction -1 -4.48982e-011 1.90973e-026   
     length 0.638113   
     axis -1.21857e-014 -90 -90   XYZ
    dof rx rz
    limits (-90.0 90.0)
           (-45.0 45.0)
  end
  begin
     id 29
     name rfingers
     direction -1 -4.48936e-011 3.81946e-026   
     length 0.514463   
     axis -2.43714e-014 -90 -90   XYZ
    dof rx
    limits (0.0 90.0)
  end
  begin
     id 30
     name rthumb
     direction -0.707107 -6.34942e-011 0.707107   
     length 0.738669   
     axis -90 -45 -2.85299e-015   XYZ
    dof rx rz
    limits (-45.0 45.0)
           (-45.0 45.0)
  end
:hierarchy
  begin
    root lhipjoint rhipjoint lowerback
    lhipjoint lfemur
    lfemur ltibia
    ltibia lfoot
    lfoot ltoes
    rhipjoint rfemur
    rfemur rtibia
    rtibia rfoot
    rfoot rtoes
    lowerback upperback
    upperback thorax
    thorax lowerneck lclavicle rclavicle
    lowerneck upperneck
    upperneck head
    lclavicle lhumerus
    lhumerus lradius
    lradius lwrist
    lwrist lhand lthumb
    lhand lfingers
    rclavicle rhumerus
    rhumerus rradius
    rradius rwrist
    rwrist rhand rthumb
    rhand rfingers
  end

#!OML:ASF F:\twosubjects\two\Thursday\Session 1\Rory.ASF
:FULLY-SPECIFIED
:DEGREES
145
root 9.16108 20.9557 8.46545 -125.995 -86.7085 130.215
lowerback -1.13325 -1.53309 -2.17234
upperback -0.295101 -2.02899 -1.47056
thorax 0.354542 -1.02223 -0.318214
lowerneck -6.73898 -7.23791 -7.35347
upperneck 14.1145 -10.7116 9.83154
head 6.31045 -5.02148 3.45111
rclavicle -9.06955e-016 -2.18663e-015
rhumerus -20.8257 -34.361 -28.8537
rradius 57.1818
rwrist 9.43418
rhand -38.5461 40.0982
rfingers 7.12502
rthumb -11.5659 10.4373
lclavicle -9.06955e-016 -2.18663e-015
lhumerus -23.43 22.514 28.7196
lradius 50.1569
lwrist 22.0286
lhand -13.8718 41.2323
lfingers 7.12502
lthumb 12.2527 70.8533
rfemur -15.363 14.224 8.08736
rtibia 32.3291
rfoot 4.64377 -6.31296
rtoes -7.83073
lfemur -10.995 -0.754792 -11.941
ltibia 29.3112
lfoot 8.59219 3.79566
ltoes 0.779388
146
root 9.14777 20.9641 8.47928 -119.929 -87.0517 123.85
lowerback -1.08395 -1.62767 -2.11633
upperback -0.248104 -2.15514 -1.41631
thorax 0.376445 -1.08507 -0.295323
lowerneck -6.60831 -7.27928 -7.36503
upperneck 14.1043 -10.7683 9.78838
head 6.28787 -5.05726 3.43846
rclavicle -1.97791e-014 -2.74323e-014
rhumerus -19.1792 -33.8417 -27.0984
rradius 58.162
rwrist 8.31866
rhand -37.4653 37.7769
rfingers 7.12502
rthumb -10.5235 8.06031
lclavicle -1.97791e-014 -2.74323e-014
lhumerus -21.6109 22.2189 26.9144
lradius 50.5611
lwrist 22.2283
lhand -14.6931 41.038
lfingers 7.12502
lthumb 11.4607 70.7048
rfemur -14.6494 14.0683 7.68439
rtibia 31.8438
rfoot 4.50384 -6.66235
rtoes -7.96874
lfemur -10.3851 -1.66992 -11.1614
ltibia 28.6727
lfoot 8.32668 4.11731
ltoes 2.36193
147
root 9.13625 20.9615 8.48267 -120.896 -87.1984 124.757
lowerback -1.16082 -1.61652 -2.13625
upperback -0.355906 -2.13983 -1.33505
thorax 0.312775 -1.07624 -0.201221
lowerneck -6.32015 -7.28325 -7.14534
upperneck 14.0223 -10.7842 9.61919
head 6.19185 -5.07726 3.35943
rclavicle 6.08778e-015 -1.8487e-014
rhumerus -17.5853 -33.1178 -25.5014
rradius 59.4205
rwrist 4.39442
rhand -34.286 35.7816
rfingers 7.12502
rthumb -7.45566 5.933
lclavicle 6.08778e-015 -1.8487e-014
lhumerus -19.9821 21.8565 24.9305
lradius 51.0258
lwrist 22.7351
lhand -15.0579 40.9322
lfingers 7.12502
lthumb 11.1089 70.6182
rfemur -14.3592 14.493 7.25426
rtibia 31.4104
rfoot 4.58131 -6.97725
rtoes -7.03708
lfemur -9.92135 -2.08895 -10.3027
ltibia 28.0311
lfoot 7.98762 4.57362
ltoes 2.05385
148
root 9.12205 20.9455 8.48021 -121.8 -87.209 125.581
lowerback -1.35992 -1.70799 -2.5476
upperback -0.388809 -2.25051 -1.19396
thorax 0.413323 -1.13207 0.164585
lowerneck -6.10247 -7.18201 -6.76976
upperneck 13.8725 -10.6201 9.23026
head 6.05088 -5.01312 3.20176
rclavicle -1.08586e-014 -1.94809e-014
rhumerus -15.8754 -32.2138 -24.1714
rradius 60.7746
rwrist 0.441588
rhand -33.2523 37.1711
rfingers 7.12502
rthumb -6.45781 7.28954
lclavicle -1.08586e-014 -1.94809e-014
lhumerus -18.6958 21.8885 22.7303
lradius 51.5555
lwrist 22.9117
lhand -14.5599 41.052
lfingers 7.12502
lthumb 11.5892 70.7115
rfemur -14.0383 14.8632 6.72864
rtibia 30.9493
rfoot 4.81063 -7.20239
rtoes -5.4519
lfemur -9.4142 -2.35736 -9.54204
ltibia 27.474
lfoot 7.51638 5.27159
ltoes 1.30179
149
root 9.10496 20.9168 8.48615 -118.199 -87.2169 121.784
lowerback -1.43304 -1.88463 -2.90172
upperback -0.436149 -2.48041 -1.17005
thorax 0.426668 -1.24727 0.380078
lowerneck -5.9504 -7.05594 -6.53196
upperneck 13.9402 -10.45 8.96813
head 6.00447 -4.94126 3.1022
rclavicle -1.73812e-014 1.0138e-014
rhumerus -14.2035 -31.6082 -22.8873
rradius 61.9508
rwrist -1.94576
rhand -32.7902 37.3849
rfingers 7.12502
rthumb -6.01164 7.49023
lclavicle -1.73812e-014 1.0138e-014
lhumerus -17.4142 21.8552 20.351
lradius 51.9552
lwrist 22.8265
lhand -14.8171 41.1446
lfingers 7.12502
lthumb 11.3412 70.8179
rfemur -13.5095 14.9077 6.10338
rtibia 30.4447
rfoot 5.25921 -7.39388
rtoes -6.41084
lfemur -8.85062 -2.79697 -8.91585
ltibia 27.0037
lfoot 7.15084 6.05033
ltoes 2.14662
